<?xml version="1.0" standalone="no"?>
<!DOCTYPE svg PUBLIC "-//W3C//DTD SVG 20010904//EN"
 "http://www.w3.org/TR/2001/REC-SVG-20010904/DTD/svg10.dtd">
<svg version="1.0" xmlns="http://www.w3.org/2000/svg"
 width="1074.000000pt" height="356.000000pt" viewBox="0 0 1074.000000 356.000000"
 preserveAspectRatio="xMidYMid meet">

<g transform="translate(0.000000,356.000000) scale(0.100000,-0.100000)"
fill="#000000" stroke="none">
<path d="M4265 3459 c-318 -45 -642 -281 -788 -574 -138 -277 -142 -645 -9
-928 119 -254 330 -449 582 -538 l75 -27 3 -68 c1 -38 4 -79 7 -91 l5 -23 290
0 290 0 0 89 0 89 68 23 c143 47 258 117 371 224 275 263 393 681 297 1056
-73 289 -282 547 -546 675 -183 89 -427 124 -645 93z m310 -630 c111 -42 227
-169 261 -287 12 -41 15 -83 12 -162 -4 -92 -8 -115 -35 -172 -17 -36 -48 -85
-69 -108 l-39 -43 -5 104 -5 104 -259 3 c-182 2 -263 -1 -272 -9 -10 -8 -14
-38 -14 -107 l0 -96 -30 34 c-85 99 -128 251 -109 388 25 179 177 342 346 372
63 11 156 2 218 -21z"/>
<path d="M9795 3463 c-77 -10 -196 -48 -265 -84 -206 -107 -329 -303 -360
-574 -7 -67 -10 -315 -8 -750 l3 -650 308 -3 307 -2 0 234 0 235 83 3 82 3 3
273 2 272 -86 0 -86 0 4 168 c4 174 11 205 54 243 44 39 124 32 158 -15 21
-27 21 -39 26 -719 l5 -692 308 -3 307 -2 0 709 c0 451 -4 738 -11 788 -6 43
-24 120 -41 171 -73 220 -222 345 -464 387 -79 14 -254 18 -329 8z"/>
<path d="M90 2410 l0 -1010 308 2 307 3 3 728 2 727 65 0 c95 0 164 -18 197
-50 24 -25 28 -36 28 -88 0 -97 -39 -132 -155 -141 l-70 -6 -3 -262 -2 -262
144 -323 145 -323 321 -3 c266 -2 320 0 320 11 0 8 -74 193 -165 412 -91 218
-165 399 -165 400 0 2 25 28 56 56 209 199 262 502 132 769 -32 67 -58 102
-122 166 -91 91 -175 139 -311 176 -76 21 -102 22 -557 26 l-478 3 0 -1011z"/>
<path d="M2390 3405 c-236 -47 -384 -185 -447 -415 -16 -58 -18 -117 -18 -575
0 -453 2 -518 17 -578 61 -236 215 -373 476 -423 53 -10 158 -14 373 -14 l299
0 0 294 0 294 -257 4 c-142 3 -265 8 -275 12 -48 22 -46 129 2 153 18 9 89 13
251 13 180 0 229 3 238 14 8 9 11 79 9 232 l-3 219 -215 5 c-144 4 -222 10
-237 18 -49 27 -58 94 -17 133 25 24 29 24 262 29 l237 5 3 298 2 297 -317 -1
c-218 -1 -338 -5 -383 -14z"/>
<path d="M5790 2716 c0 -760 2 -798 55 -949 64 -186 199 -319 386 -382 112
-37 320 -47 450 -20 284 57 475 239 551 525 23 85 23 89 23 805 l0 720 -307 3
-307 2 -3 -687 c-3 -657 -4 -689 -22 -720 -42 -69 -138 -71 -183 -4 -17 24
-18 78 -23 716 l-5 690 -307 3 -308 2 0 -704z"/>
<path d="M8122 3409 c-223 -38 -376 -160 -450 -362 l-26 -72 -4 -530 c-3 -460
-1 -539 13 -602 47 -212 194 -357 425 -420 56 -16 110 -18 395 -18 l330 0 0
290 0 290 -255 5 c-302 6 -310 8 -310 88 0 89 9 92 282 92 123 0 229 4 236 8
9 7 12 60 10 233 l-3 224 -215 5 c-183 4 -220 8 -242 22 -32 21 -46 75 -28
108 23 43 64 50 299 50 220 0 221 0 226 23 3 12 4 146 3 297 l-3 275 -315 1
c-173 1 -339 -2 -368 -7z"/>
<path d="M3800 1069 c-24 -5 -68 -20 -97 -34 -197 -97 -244 -420 -87 -603 43
-51 140 -100 215 -108 103 -12 229 34 291 105 118 134 123 392 12 524 -79 94
-212 141 -334 116z m141 -101 c119 -35 189 -186 160 -343 -15 -80 -55 -142
-115 -179 -41 -26 -58 -30 -115 -30 -159 1 -251 119 -238 307 13 190 144 295
308 245z"/>
<path d="M6599 1070 c-126 -22 -195 -99 -187 -211 8 -107 58 -146 258 -199
122 -32 157 -50 178 -94 47 -95 -112 -181 -249 -134 -59 19 -88 46 -106 99
l-18 49 -47 0 c-44 0 -48 -2 -48 -24 0 -43 30 -111 67 -148 45 -47 112 -75
194 -84 135 -14 247 35 293 128 42 84 31 156 -31 220 -41 42 -93 64 -229 97
-107 26 -151 50 -160 87 -15 60 29 110 108 120 109 15 188 -22 208 -97 l11
-40 47 7 c26 3 49 8 50 10 2 1 -3 27 -12 56 -34 116 -174 185 -327 158z"/>
<path d="M7680 695 l0 -365 45 0 45 0 0 365 0 365 -45 0 -45 0 0 -365z"/>
<path d="M8820 1004 l0 -55 48 3 47 3 3 53 3 52 -50 0 -51 0 0 -56z"/>
<path d="M8563 1014 c-43 -25 -43 -25 -43 -84 0 -57 -1 -59 -27 -62 -24 -3
-28 -8 -31 -40 -3 -36 -2 -38 26 -38 l30 0 4 -197 c3 -217 7 -232 63 -255 29
-12 121 -16 132 -5 3 3 2 24 -2 46 -6 38 -9 41 -39 41 -54 0 -56 8 -56 197 l0
173 46 0 45 0 -3 38 c-3 36 -4 37 -45 40 l-43 3 0 85 c0 46 -3 84 -7 84 -5 0
-27 -12 -50 -26z"/>
<path d="M4530 869 c-19 -6 -46 -19 -61 -30 l-28 -19 -3 22 c-3 20 -9 23 -48
23 l-45 0 -3 -362 -2 -363 50 0 50 0 0 120 0 121 28 -21 c63 -47 161 -44 235
7 92 63 128 212 86 353 -33 108 -156 179 -259 149z m125 -112 c19 -19 38 -52
45 -78 15 -55 8 -155 -14 -197 -49 -94 -183 -94 -233 0 -24 45 -24 180 0 224
47 89 141 112 202 51z"/>
<path d="M5092 869 c-114 -22 -178 -105 -189 -244 -14 -182 82 -298 247 -298
106 0 178 42 216 124 21 48 12 59 -48 59 -28 0 -38 -5 -43 -19 -3 -11 -22 -34
-41 -50 -68 -60 -176 -34 -214 52 -37 80 -44 76 173 79 l192 3 -3 60 c-6 121
-76 211 -183 234 -27 6 -53 11 -57 10 -4 -1 -26 -5 -50 -10z m126 -99 c29 -18
62 -71 62 -100 0 -6 -51 -10 -141 -10 -125 0 -140 2 -135 16 3 9 6 19 6 24 0
15 53 72 74 80 38 16 100 11 134 -10z"/>
<path d="M5712 870 c-18 -4 -50 -19 -72 -34 l-40 -26 0 30 c0 28 -2 30 -40 30
l-40 0 0 -270 0 -270 44 0 44 0 4 183 c4 206 13 238 73 263 50 21 90 17 122
-10 l28 -24 5 -204 5 -203 45 0 45 0 3 205 c2 196 1 207 -20 249 -34 66 -123
102 -206 81z"/>
<path d="M7252 870 c-121 -25 -192 -125 -192 -270 0 -167 94 -272 244 -273
107 -1 198 59 231 152 18 52 20 177 3 233 -15 51 -78 122 -125 141 -53 21
-111 27 -161 17z m144 -111 c39 -36 54 -80 54 -159 0 -122 -41 -181 -132 -187
-101 -8 -158 60 -158 187 0 81 26 142 72 170 46 29 127 23 164 -11z"/>
<path d="M9223 870 c-123 -25 -193 -123 -193 -270 0 -167 94 -272 244 -273 74
0 128 21 179 71 46 45 67 109 67 205 0 91 -15 139 -62 191 -56 65 -146 94
-235 76z m128 -103 c50 -33 69 -78 69 -167 0 -51 -6 -86 -18 -110 -54 -107
-203 -106 -252 3 -43 93 -16 235 52 277 45 27 106 26 149 -3z"/>
<path d="M9837 866 c-26 -7 -58 -23 -72 -36 l-23 -22 -4 28 c-3 27 -6 29 -43
29 l-40 0 0 -265 0 -265 45 0 45 0 5 185 c5 201 10 218 63 250 64 39 139 16
156 -48 6 -20 11 -117 11 -215 l0 -178 48 3 47 3 3 155 c4 197 -3 270 -31 312
-40 59 -127 86 -210 64z"/>
<path d="M10346 869 c-93 -22 -143 -84 -133 -166 7 -67 43 -98 147 -129 177
-52 198 -67 170 -119 -16 -31 -51 -45 -108 -45 -61 0 -108 28 -120 72 -8 31
-11 33 -48 30 -50 -5 -58 -13 -49 -52 10 -43 68 -106 113 -121 63 -21 164 -15
219 12 84 42 121 126 87 196 -26 52 -66 76 -185 108 -95 26 -139 50 -139 75 0
6 11 22 25 35 48 49 171 26 190 -35 11 -35 95 -22 95 14 0 86 -144 154 -264
125z"/>
<path d="M7924 855 c-4 -9 -4 -102 -2 -208 3 -144 8 -201 20 -228 44 -100 204
-126 294 -46 l34 29 0 -37 0 -36 43 3 42 3 0 265 0 265 -47 3 -46 3 -4 -183
c-3 -206 -11 -233 -72 -262 -39 -19 -75 -20 -109 -5 -47 21 -52 41 -55 252
l-4 197 -44 0 c-31 0 -46 -5 -50 -15z"/>
<path d="M8820 600 l0 -271 48 3 47 3 0 265 0 265 -47 3 -48 3 0 -271z"/>
</g>
</svg>
